<mxfile host="app.diagrams.net" modified="2023-11-24T17:59:58.945Z" agent="Mozilla/5.0 (Windows NT 10.0; Win64; x64) AppleWebKit/537.36 (KHTML, like Gecko) Chrome/119.0.0.0 Safari/537.36" etag="RnEyeH5MgQGWqzCW5zrt" version="22.1.3" type="google">
  <diagram id="C5RBs43oDa-KdzZeNtuy" name="Page-1">
    <mxGraphModel grid="1" page="1" gridSize="10" guides="1" tooltips="1" connect="1" arrows="1" fold="1" pageScale="1" pageWidth="827" pageHeight="1169" math="0" shadow="0">
      <root>
        <mxCell id="WIyWlLk6GJQsqaUBKTNV-0" />
        <mxCell id="WIyWlLk6GJQsqaUBKTNV-1" parent="WIyWlLk6GJQsqaUBKTNV-0" />
        <mxCell id="57x83o_NCa7N06Ixr5td-11" value="" style="edgeStyle=orthogonalEdgeStyle;rounded=0;orthogonalLoop=1;jettySize=auto;html=1;" edge="1" parent="WIyWlLk6GJQsqaUBKTNV-1" source="57x83o_NCa7N06Ixr5td-0" target="57x83o_NCa7N06Ixr5td-9">
          <mxGeometry relative="1" as="geometry" />
        </mxCell>
        <mxCell id="57x83o_NCa7N06Ixr5td-0" value="Start" style="ellipse;whiteSpace=wrap;html=1;" vertex="1" parent="WIyWlLk6GJQsqaUBKTNV-1">
          <mxGeometry x="354" y="120" width="120" height="80" as="geometry" />
        </mxCell>
        <mxCell id="57x83o_NCa7N06Ixr5td-46" style="edgeStyle=orthogonalEdgeStyle;rounded=0;orthogonalLoop=1;jettySize=auto;html=1;exitX=1;exitY=0.5;exitDx=0;exitDy=0;entryX=0;entryY=0.5;entryDx=0;entryDy=0;" edge="1" parent="WIyWlLk6GJQsqaUBKTNV-1" source="57x83o_NCa7N06Ixr5td-3" target="57x83o_NCa7N06Ixr5td-31">
          <mxGeometry relative="1" as="geometry" />
        </mxCell>
        <mxCell id="57x83o_NCa7N06Ixr5td-3" value="Player2 setup" style="shape=parallelogram;perimeter=parallelogramPerimeter;whiteSpace=wrap;html=1;fixedSize=1;" vertex="1" parent="WIyWlLk6GJQsqaUBKTNV-1">
          <mxGeometry x="320" y="360" width="120" height="60" as="geometry" />
        </mxCell>
        <mxCell id="57x83o_NCa7N06Ixr5td-51" style="edgeStyle=orthogonalEdgeStyle;rounded=0;orthogonalLoop=1;jettySize=auto;html=1;exitX=0.5;exitY=0;exitDx=0;exitDy=0;entryX=0.5;entryY=1;entryDx=0;entryDy=0;" edge="1" parent="WIyWlLk6GJQsqaUBKTNV-1" source="57x83o_NCa7N06Ixr5td-5" target="57x83o_NCa7N06Ixr5td-39">
          <mxGeometry relative="1" as="geometry" />
        </mxCell>
        <mxCell id="57x83o_NCa7N06Ixr5td-5" value="Player1 setup" style="shape=parallelogram;perimeter=parallelogramPerimeter;whiteSpace=wrap;html=1;fixedSize=1;" vertex="1" parent="WIyWlLk6GJQsqaUBKTNV-1">
          <mxGeometry x="660" y="360" width="120" height="60" as="geometry" />
        </mxCell>
        <mxCell id="57x83o_NCa7N06Ixr5td-12" value="" style="edgeStyle=orthogonalEdgeStyle;rounded=0;orthogonalLoop=1;jettySize=auto;html=1;" edge="1" parent="WIyWlLk6GJQsqaUBKTNV-1" source="57x83o_NCa7N06Ixr5td-9" target="57x83o_NCa7N06Ixr5td-10">
          <mxGeometry relative="1" as="geometry" />
        </mxCell>
        <mxCell id="57x83o_NCa7N06Ixr5td-9" value="Fill the background color" style="rounded=0;whiteSpace=wrap;html=1;" vertex="1" parent="WIyWlLk6GJQsqaUBKTNV-1">
          <mxGeometry x="130" y="130" width="120" height="60" as="geometry" />
        </mxCell>
        <mxCell id="57x83o_NCa7N06Ixr5td-17" value="" style="edgeStyle=orthogonalEdgeStyle;rounded=0;orthogonalLoop=1;jettySize=auto;html=1;" edge="1" parent="WIyWlLk6GJQsqaUBKTNV-1" source="57x83o_NCa7N06Ixr5td-10" target="57x83o_NCa7N06Ixr5td-13">
          <mxGeometry relative="1" as="geometry" />
        </mxCell>
        <mxCell id="57x83o_NCa7N06Ixr5td-10" value="Draw a grid for each player" style="rounded=0;whiteSpace=wrap;html=1;" vertex="1" parent="WIyWlLk6GJQsqaUBKTNV-1">
          <mxGeometry x="130" y="250" width="120" height="60" as="geometry" />
        </mxCell>
        <mxCell id="57x83o_NCa7N06Ixr5td-16" value="" style="edgeStyle=orthogonalEdgeStyle;rounded=0;orthogonalLoop=1;jettySize=auto;html=1;" edge="1" parent="WIyWlLk6GJQsqaUBKTNV-1" source="57x83o_NCa7N06Ixr5td-13" target="57x83o_NCa7N06Ixr5td-15">
          <mxGeometry relative="1" as="geometry" />
        </mxCell>
        <mxCell id="57x83o_NCa7N06Ixr5td-22" value="Yes" style="edgeLabel;html=1;align=center;verticalAlign=middle;resizable=0;points=[];" connectable="0" vertex="1" parent="57x83o_NCa7N06Ixr5td-16">
          <mxGeometry x="-0.28" y="3" relative="1" as="geometry">
            <mxPoint as="offset" />
          </mxGeometry>
        </mxCell>
        <mxCell id="57x83o_NCa7N06Ixr5td-24" value="" style="edgeStyle=orthogonalEdgeStyle;rounded=0;orthogonalLoop=1;jettySize=auto;html=1;" edge="1" parent="WIyWlLk6GJQsqaUBKTNV-1" source="57x83o_NCa7N06Ixr5td-13" target="57x83o_NCa7N06Ixr5td-3">
          <mxGeometry relative="1" as="geometry" />
        </mxCell>
        <mxCell id="57x83o_NCa7N06Ixr5td-26" value="No" style="edgeLabel;html=1;align=center;verticalAlign=middle;resizable=0;points=[];" connectable="0" vertex="1" parent="57x83o_NCa7N06Ixr5td-24">
          <mxGeometry x="-0.2" y="1" relative="1" as="geometry">
            <mxPoint as="offset" />
          </mxGeometry>
        </mxCell>
        <mxCell id="57x83o_NCa7N06Ixr5td-13" value="Player use cursor?" style="rhombus;whiteSpace=wrap;html=1;" vertex="1" parent="WIyWlLk6GJQsqaUBKTNV-1">
          <mxGeometry x="110" y="350" width="160" height="80" as="geometry" />
        </mxCell>
        <mxCell id="57x83o_NCa7N06Ixr5td-59" style="edgeStyle=orthogonalEdgeStyle;rounded=0;orthogonalLoop=1;jettySize=auto;html=1;exitX=1;exitY=0.5;exitDx=0;exitDy=0;entryX=0.75;entryY=1;entryDx=0;entryDy=0;" edge="1" parent="WIyWlLk6GJQsqaUBKTNV-1" source="57x83o_NCa7N06Ixr5td-15" target="57x83o_NCa7N06Ixr5td-3">
          <mxGeometry relative="1" as="geometry" />
        </mxCell>
        <mxCell id="57x83o_NCa7N06Ixr5td-15" value="Draw cursor" style="whiteSpace=wrap;html=1;" vertex="1" parent="WIyWlLk6GJQsqaUBKTNV-1">
          <mxGeometry x="130" y="480" width="120" height="60" as="geometry" />
        </mxCell>
        <mxCell id="57x83o_NCa7N06Ixr5td-37" value="" style="edgeStyle=orthogonalEdgeStyle;rounded=0;orthogonalLoop=1;jettySize=auto;html=1;" edge="1" parent="WIyWlLk6GJQsqaUBKTNV-1" source="57x83o_NCa7N06Ixr5td-31" target="57x83o_NCa7N06Ixr5td-36">
          <mxGeometry relative="1" as="geometry" />
        </mxCell>
        <mxCell id="57x83o_NCa7N06Ixr5td-38" value="Yes" style="edgeLabel;html=1;align=center;verticalAlign=middle;resizable=0;points=[];" connectable="0" vertex="1" parent="57x83o_NCa7N06Ixr5td-37">
          <mxGeometry x="-0.0889" y="-2" relative="1" as="geometry">
            <mxPoint as="offset" />
          </mxGeometry>
        </mxCell>
        <mxCell id="57x83o_NCa7N06Ixr5td-36" value="Reset all ship of player" style="whiteSpace=wrap;html=1;" vertex="1" parent="WIyWlLk6GJQsqaUBKTNV-1">
          <mxGeometry x="490" y="540" width="120" height="60" as="geometry" />
        </mxCell>
        <mxCell id="57x83o_NCa7N06Ixr5td-55" style="edgeStyle=orthogonalEdgeStyle;rounded=0;orthogonalLoop=1;jettySize=auto;html=1;entryX=0;entryY=0.5;entryDx=0;entryDy=0;" edge="1" parent="WIyWlLk6GJQsqaUBKTNV-1" source="57x83o_NCa7N06Ixr5td-39" target="57x83o_NCa7N06Ixr5td-54">
          <mxGeometry relative="1" as="geometry" />
        </mxCell>
        <mxCell id="57x83o_NCa7N06Ixr5td-56" value="Yes" style="edgeLabel;html=1;align=center;verticalAlign=middle;resizable=0;points=[];" connectable="0" vertex="1" parent="57x83o_NCa7N06Ixr5td-55">
          <mxGeometry x="-0.0857" y="2" relative="1" as="geometry">
            <mxPoint as="offset" />
          </mxGeometry>
        </mxCell>
        <mxCell id="57x83o_NCa7N06Ixr5td-39" value="Reset setup?" style="rhombus;whiteSpace=wrap;html=1;" vertex="1" parent="WIyWlLk6GJQsqaUBKTNV-1">
          <mxGeometry x="560" y="220" width="140" height="80" as="geometry" />
        </mxCell>
        <mxCell id="57x83o_NCa7N06Ixr5td-48" style="edgeStyle=orthogonalEdgeStyle;rounded=0;orthogonalLoop=1;jettySize=auto;html=1;entryX=0;entryY=0.5;entryDx=0;entryDy=0;" edge="1" parent="WIyWlLk6GJQsqaUBKTNV-1" source="57x83o_NCa7N06Ixr5td-31" target="57x83o_NCa7N06Ixr5td-5">
          <mxGeometry relative="1" as="geometry" />
        </mxCell>
        <mxCell id="57x83o_NCa7N06Ixr5td-49" value="No" style="edgeLabel;html=1;align=center;verticalAlign=middle;resizable=0;points=[];" connectable="0" vertex="1" parent="57x83o_NCa7N06Ixr5td-48">
          <mxGeometry x="-0.05" y="-1" relative="1" as="geometry">
            <mxPoint as="offset" />
          </mxGeometry>
        </mxCell>
        <mxCell id="57x83o_NCa7N06Ixr5td-31" value="Reset setup?" style="rhombus;whiteSpace=wrap;html=1;" vertex="1" parent="WIyWlLk6GJQsqaUBKTNV-1">
          <mxGeometry x="480" y="410" width="140" height="80" as="geometry" />
        </mxCell>
        <mxCell id="57x83o_NCa7N06Ixr5td-58" style="edgeStyle=orthogonalEdgeStyle;rounded=0;orthogonalLoop=1;jettySize=auto;html=1;exitX=1;exitY=0.5;exitDx=0;exitDy=0;entryX=0;entryY=0.5;entryDx=0;entryDy=0;" edge="1" parent="WIyWlLk6GJQsqaUBKTNV-1" source="57x83o_NCa7N06Ixr5td-54" target="57x83o_NCa7N06Ixr5td-57">
          <mxGeometry relative="1" as="geometry">
            <mxPoint x="840" y="400" as="targetPoint" />
          </mxGeometry>
        </mxCell>
        <mxCell id="57x83o_NCa7N06Ixr5td-54" value="Reset all ship of player" style="whiteSpace=wrap;html=1;" vertex="1" parent="WIyWlLk6GJQsqaUBKTNV-1">
          <mxGeometry x="670" y="120" width="120" height="60" as="geometry" />
        </mxCell>
        <mxCell id="57x83o_NCa7N06Ixr5td-67" value="" style="edgeStyle=orthogonalEdgeStyle;rounded=0;orthogonalLoop=1;jettySize=auto;html=1;" edge="1" parent="WIyWlLk6GJQsqaUBKTNV-1" source="57x83o_NCa7N06Ixr5td-57" target="57x83o_NCa7N06Ixr5td-65">
          <mxGeometry relative="1" as="geometry" />
        </mxCell>
        <mxCell id="57x83o_NCa7N06Ixr5td-57" value="Player1 attack" style="rounded=0;whiteSpace=wrap;html=1;" vertex="1" parent="WIyWlLk6GJQsqaUBKTNV-1">
          <mxGeometry x="860" y="360" width="120" height="60" as="geometry" />
        </mxCell>
        <mxCell id="57x83o_NCa7N06Ixr5td-60" style="edgeStyle=orthogonalEdgeStyle;rounded=0;orthogonalLoop=1;jettySize=auto;html=1;exitX=0;exitY=0.5;exitDx=0;exitDy=0;entryX=0.193;entryY=1.028;entryDx=0;entryDy=0;entryPerimeter=0;" edge="1" parent="WIyWlLk6GJQsqaUBKTNV-1" source="57x83o_NCa7N06Ixr5td-36" target="57x83o_NCa7N06Ixr5td-3">
          <mxGeometry relative="1" as="geometry" />
        </mxCell>
        <mxCell id="57x83o_NCa7N06Ixr5td-69" style="edgeStyle=orthogonalEdgeStyle;rounded=0;orthogonalLoop=1;jettySize=auto;html=1;entryX=0.5;entryY=1;entryDx=0;entryDy=0;" edge="1" parent="WIyWlLk6GJQsqaUBKTNV-1" source="57x83o_NCa7N06Ixr5td-65" target="57x83o_NCa7N06Ixr5td-68">
          <mxGeometry relative="1" as="geometry" />
        </mxCell>
        <mxCell id="57x83o_NCa7N06Ixr5td-71" value="No" style="edgeLabel;html=1;align=center;verticalAlign=middle;resizable=0;points=[];" connectable="0" vertex="1" parent="57x83o_NCa7N06Ixr5td-69">
          <mxGeometry x="-0.5075" y="-2" relative="1" as="geometry">
            <mxPoint as="offset" />
          </mxGeometry>
        </mxCell>
        <mxCell id="57x83o_NCa7N06Ixr5td-73" value="" style="edgeStyle=orthogonalEdgeStyle;rounded=0;orthogonalLoop=1;jettySize=auto;html=1;" edge="1" parent="WIyWlLk6GJQsqaUBKTNV-1" source="57x83o_NCa7N06Ixr5td-65" target="57x83o_NCa7N06Ixr5td-72">
          <mxGeometry relative="1" as="geometry" />
        </mxCell>
        <mxCell id="57x83o_NCa7N06Ixr5td-74" value="Yes" style="edgeLabel;html=1;align=center;verticalAlign=middle;resizable=0;points=[];" connectable="0" vertex="1" parent="57x83o_NCa7N06Ixr5td-73">
          <mxGeometry x="0.1106" y="3" relative="1" as="geometry">
            <mxPoint as="offset" />
          </mxGeometry>
        </mxCell>
        <mxCell id="57x83o_NCa7N06Ixr5td-65" value="all ships of player 2 have sunk" style="rhombus;whiteSpace=wrap;html=1;" vertex="1" parent="WIyWlLk6GJQsqaUBKTNV-1">
          <mxGeometry x="822.5" y="490" width="195" height="80" as="geometry" />
        </mxCell>
        <mxCell id="57x83o_NCa7N06Ixr5td-76" style="edgeStyle=orthogonalEdgeStyle;rounded=0;orthogonalLoop=1;jettySize=auto;html=1;exitX=0.5;exitY=0;exitDx=0;exitDy=0;entryX=0.5;entryY=1;entryDx=0;entryDy=0;" edge="1" parent="WIyWlLk6GJQsqaUBKTNV-1" source="57x83o_NCa7N06Ixr5td-68" target="57x83o_NCa7N06Ixr5td-75">
          <mxGeometry relative="1" as="geometry" />
        </mxCell>
        <mxCell id="57x83o_NCa7N06Ixr5td-68" value="Player 2 attack" style="rounded=0;whiteSpace=wrap;html=1;" vertex="1" parent="WIyWlLk6GJQsqaUBKTNV-1">
          <mxGeometry x="1090" y="360" width="120" height="60" as="geometry" />
        </mxCell>
        <mxCell id="57x83o_NCa7N06Ixr5td-90" style="edgeStyle=orthogonalEdgeStyle;rounded=0;orthogonalLoop=1;jettySize=auto;html=1;entryX=0.5;entryY=1;entryDx=0;entryDy=0;" edge="1" parent="WIyWlLk6GJQsqaUBKTNV-1" source="57x83o_NCa7N06Ixr5td-72" target="57x83o_NCa7N06Ixr5td-88">
          <mxGeometry relative="1" as="geometry" />
        </mxCell>
        <mxCell id="57x83o_NCa7N06Ixr5td-72" value="Player 1 win" style="shape=parallelogram;perimeter=parallelogramPerimeter;whiteSpace=wrap;html=1;fixedSize=1;" vertex="1" parent="WIyWlLk6GJQsqaUBKTNV-1">
          <mxGeometry x="860" y="620" width="120" height="60" as="geometry" />
        </mxCell>
        <mxCell id="57x83o_NCa7N06Ixr5td-77" style="edgeStyle=orthogonalEdgeStyle;rounded=0;orthogonalLoop=1;jettySize=auto;html=1;exitX=0;exitY=0.5;exitDx=0;exitDy=0;entryX=0.5;entryY=0;entryDx=0;entryDy=0;" edge="1" parent="WIyWlLk6GJQsqaUBKTNV-1" source="57x83o_NCa7N06Ixr5td-75" target="57x83o_NCa7N06Ixr5td-57">
          <mxGeometry relative="1" as="geometry" />
        </mxCell>
        <mxCell id="57x83o_NCa7N06Ixr5td-78" value="No" style="edgeLabel;html=1;align=center;verticalAlign=middle;resizable=0;points=[];" connectable="0" vertex="1" parent="57x83o_NCa7N06Ixr5td-77">
          <mxGeometry x="-0.3105" y="4" relative="1" as="geometry">
            <mxPoint as="offset" />
          </mxGeometry>
        </mxCell>
        <mxCell id="57x83o_NCa7N06Ixr5td-84" style="edgeStyle=orthogonalEdgeStyle;rounded=0;orthogonalLoop=1;jettySize=auto;html=1;exitX=0.5;exitY=0;exitDx=0;exitDy=0;entryX=0.5;entryY=1;entryDx=0;entryDy=0;" edge="1" parent="WIyWlLk6GJQsqaUBKTNV-1" source="57x83o_NCa7N06Ixr5td-75" target="57x83o_NCa7N06Ixr5td-81">
          <mxGeometry relative="1" as="geometry" />
        </mxCell>
        <mxCell id="57x83o_NCa7N06Ixr5td-85" value="Yes" style="edgeLabel;html=1;align=center;verticalAlign=middle;resizable=0;points=[];" connectable="0" vertex="1" parent="57x83o_NCa7N06Ixr5td-84">
          <mxGeometry x="-0.0431" y="-2" relative="1" as="geometry">
            <mxPoint as="offset" />
          </mxGeometry>
        </mxCell>
        <mxCell id="57x83o_NCa7N06Ixr5td-75" value="all ships of player 1 have sunk" style="rhombus;whiteSpace=wrap;html=1;" vertex="1" parent="WIyWlLk6GJQsqaUBKTNV-1">
          <mxGeometry x="1046" y="250" width="195" height="80" as="geometry" />
        </mxCell>
        <mxCell id="57x83o_NCa7N06Ixr5td-89" style="edgeStyle=orthogonalEdgeStyle;rounded=0;orthogonalLoop=1;jettySize=auto;html=1;entryX=0.5;entryY=0;entryDx=0;entryDy=0;" edge="1" parent="WIyWlLk6GJQsqaUBKTNV-1" source="57x83o_NCa7N06Ixr5td-81" target="57x83o_NCa7N06Ixr5td-88">
          <mxGeometry relative="1" as="geometry" />
        </mxCell>
        <mxCell id="57x83o_NCa7N06Ixr5td-81" value="Player 2 win" style="shape=parallelogram;perimeter=parallelogramPerimeter;whiteSpace=wrap;html=1;fixedSize=1;" vertex="1" parent="WIyWlLk6GJQsqaUBKTNV-1">
          <mxGeometry x="1083.5" y="130" width="120" height="60" as="geometry" />
        </mxCell>
        <mxCell id="57x83o_NCa7N06Ixr5td-86" value="End" style="ellipse;whiteSpace=wrap;html=1;" vertex="1" parent="WIyWlLk6GJQsqaUBKTNV-1">
          <mxGeometry x="1400" y="350" width="120" height="80" as="geometry" />
        </mxCell>
        <mxCell id="57x83o_NCa7N06Ixr5td-92" style="edgeStyle=orthogonalEdgeStyle;rounded=0;orthogonalLoop=1;jettySize=auto;html=1;exitX=0;exitY=0.5;exitDx=0;exitDy=0;entryX=0.5;entryY=0;entryDx=0;entryDy=0;" edge="1" parent="WIyWlLk6GJQsqaUBKTNV-1" source="57x83o_NCa7N06Ixr5td-88" target="57x83o_NCa7N06Ixr5td-9">
          <mxGeometry relative="1" as="geometry">
            <Array as="points">
              <mxPoint x="1260" y="480" />
              <mxPoint x="1260" y="80" />
              <mxPoint x="190" y="80" />
            </Array>
          </mxGeometry>
        </mxCell>
        <mxCell id="57x83o_NCa7N06Ixr5td-93" value="Yes" style="edgeLabel;html=1;align=center;verticalAlign=middle;resizable=0;points=[];" connectable="0" vertex="1" parent="57x83o_NCa7N06Ixr5td-92">
          <mxGeometry x="0.2334" y="4" relative="1" as="geometry">
            <mxPoint as="offset" />
          </mxGeometry>
        </mxCell>
        <mxCell id="57x83o_NCa7N06Ixr5td-94" style="edgeStyle=orthogonalEdgeStyle;rounded=0;orthogonalLoop=1;jettySize=auto;html=1;exitX=1;exitY=0.5;exitDx=0;exitDy=0;entryX=0.5;entryY=1;entryDx=0;entryDy=0;" edge="1" parent="WIyWlLk6GJQsqaUBKTNV-1" source="57x83o_NCa7N06Ixr5td-88" target="57x83o_NCa7N06Ixr5td-86">
          <mxGeometry relative="1" as="geometry" />
        </mxCell>
        <mxCell id="57x83o_NCa7N06Ixr5td-95" value="No" style="edgeLabel;html=1;align=center;verticalAlign=middle;resizable=0;points=[];" connectable="0" vertex="1" parent="57x83o_NCa7N06Ixr5td-94">
          <mxGeometry x="-0.08" y="2" relative="1" as="geometry">
            <mxPoint as="offset" />
          </mxGeometry>
        </mxCell>
        <mxCell id="57x83o_NCa7N06Ixr5td-88" value="Play again ?" style="rhombus;whiteSpace=wrap;html=1;" vertex="1" parent="WIyWlLk6GJQsqaUBKTNV-1">
          <mxGeometry x="1270" y="440" width="140" height="80" as="geometry" />
        </mxCell>
      </root>
    </mxGraphModel>
  </diagram>
</mxfile>
